<svg width="220" height="230" viewBox="0 0 220 230" fill="none" xmlns="http://www.w3.org/2000/svg">
<path d="M66.8208 202.918C51.793 196.65 36.1052 193.66 20.72 197.34C13.6804 198.979 6.73708 202.113 0 206.943V230H116.015C100.08 220.455 84.2822 210.421 68.2232 203.493C67.7558 203.291 67.2883 203.119 66.8208 202.918Z" fill="#C5C5C5"/>
<path d="M219.986 0H0V206.942C6.73708 202.112 13.6804 198.95 20.72 197.311C36.1052 193.66 51.793 196.621 66.8208 202.889C67.2883 203.09 67.7558 203.291 68.2232 203.464C84.2822 210.364 100.08 220.426 116.015 229.971H219.986V0Z" fill="#CECECE"/>
<path d="M65.7759 167.037C66.2159 167.267 66.6558 167.526 67.0821 167.756C94.0579 182.85 120.525 206.137 148.683 218.529C172.634 229.051 196.736 226.924 219.986 215.596V0H0V165.284C7.1908 160.224 14.6428 157.32 22.1499 156.4C36.9027 154.502 51.6555 159.332 65.7759 167.037Z" fill="#D8D8D8"/>
<path d="M0 0V123.452C7.64452 118.162 15.6053 115.604 23.566 115.489C37.7001 115.259 51.5043 122.015 64.7172 131.158C65.1297 131.445 65.5284 131.733 65.9409 132.02C91.1843 149.845 116.221 174.024 143.266 187.249C168.936 199.812 195.004 197.139 219.973 183.626V0H0Z" fill="#E1E1E1"/>
<path d="M24.9959 74.5775C38.4976 76.3025 51.3805 84.6975 63.6723 95.3062C64.0572 95.6225 64.4285 95.9675 64.8134 96.2837C88.3245 116.869 111.932 141.852 137.863 155.997C165.196 170.89 193.327 167.727 219.986 151.742V0H0V81.42C8.11199 75.785 16.5815 73.5137 24.9959 74.5775Z" fill="#EBEBEB"/>
<path d="M219.986 0H0V39.1863C8.56571 33.1775 17.5577 31.28 26.4258 33.6663C39.295 37.145 51.243 47.38 62.6273 59.4263C62.9848 59.8 63.3285 60.1738 63.686 60.5475C85.4647 83.8638 107.642 109.681 132.473 124.718C161.415 142.255 191.704 138.805 220 119.945V0H219.986Z" fill="#EFEFEF"/>
<path d="M62.5448 24.8113C82.5911 50.8875 103.339 77.4238 127.056 93.4375C155.737 112.815 186.356 110.918 214.762 91.9138C216.521 90.735 218.254 89.4988 220 88.205V0H39.6113C47.3108 6.12375 54.5566 14.5475 61.5687 23.575C61.8986 23.9775 62.2149 24.4088 62.5448 24.8113Z" fill="#F3F3F3"/>
<path d="M219.986 0H68.4707C84.7085 24.6675 101.95 47.2937 121.652 62.1575C148.023 82.0525 176.649 83.6337 203.46 68.2237C209.069 65.0037 214.61 60.9788 220 56.235V0H219.986Z" fill="#F7F7F7"/>
<path d="M192.144 44.505C198.634 41.4575 205.013 37.2312 211.201 31.9125C214.184 29.3537 217.113 26.5075 219.986 23.4312V0H88.462C97.1102 11.9887 106.295 22.4825 116.249 30.8775C140.296 51.2037 166.942 56.3787 192.144 44.505Z" fill="#FBFBFB"/>
<path d="M180.842 20.815C191.196 17.1925 201.315 10.1488 210.651 0H111.244C132.927 20.4125 157.386 29.0375 180.842 20.815Z" fill="white"/>
</svg>
